<svg width="512" height="512" viewBox="0 0 512 512" fill="none" xmlns="http://www.w3.org/2000/svg">
<rect width="512" height="512" fill="#DCE1DE"/>
<rect x="1.5" y="1.5" width="509" height="509" stroke="white" stroke-opacity="0.2" stroke-width="3" style="mix-blend-mode:lighten"/>
<path d="M256 301.333V216C256 180.654 284.654 152 320 152C355.346 152 384 180.654 384 216V344" stroke="#CB8B8C" stroke-width="21" stroke-linecap="round"/>
<path d="M336 272H320C284.654 272 256 300.654 256 336V352" stroke="#CB8B8C" stroke-width="21" stroke-linecap="round" stroke-linejoin="round"/>
<path d="M256 280C256 315.346 227.346 344 192 344C156.654 344 128 315.346 128 280" stroke="#1E293B" stroke-width="21" stroke-linecap="round"/>
<path d="M256 280V216C256 180.654 284.654 152 320 152C355.346 152 384 180.654 384 216V256" stroke="#1E293B" stroke-width="21" stroke-linecap="round"/>
<path d="M128 248V280" stroke="#1E293B" stroke-width="21" stroke-linecap="round"/>
</svg>
